<svg width="9" height="9" fill="none" xmlns="http://www.w3.org/2000/svg"><path d="M2.016 4.5c0-.466.113-.89.34-1.274.228-.384.533-.69.917-.916.383-.228.808-.341 1.274-.341.403 0 .775.086 1.116.26.344.173.628.41.853.711.224.299.363.637.417 1.015H5.902a1.12 1.12 0 00-.473-.716 1.465 1.465 0 00-.882-.282c-.284 0-.543.07-.776.21-.233.138-.419.324-.558.557-.14.233-.209.492-.209.776 0 .284.07.543.21.776.138.233.324.419.557.558.233.139.492.209.776.209.33 0 .608-.093.835-.277.23-.188.375-.428.435-.72h1.031a2.264 2.264 0 01-1.206 1.726 2.3 2.3 0 01-1.095.26c-.466 0-.89-.114-1.274-.342a2.574 2.574 0 01-.916-.916A2.453 2.453 0 012.016 4.5zM4.504 9c-.62 0-1.201-.116-1.747-.35a4.587 4.587 0 01-1.436-.967 4.648 4.648 0 01-.972-1.436A4.33 4.33 0 01.004 4.5c.003-.622.121-1.205.354-1.747A4.596 4.596 0 012.761.349 4.37 4.37 0 014.504 0a4.439 4.439 0 013.179 1.321c.412.412.735.89.968 1.432.233.542.35 1.125.353 1.747a4.33 4.33 0 01-.345 1.747A4.522 4.522 0 016.256 8.65c-.546.234-1.13.35-1.752.35zm0-.989c.486 0 .942-.09 1.368-.272a3.525 3.525 0 001.875-1.871c.182-.426.271-.88.269-1.364a3.525 3.525 0 00-2.148-3.243A3.418 3.418 0 004.504.99c-.483 0-.936.09-1.36.272a3.585 3.585 0 00-1.875 1.88 3.47 3.47 0 00-.276 1.363c-.003.48.087.934.268 1.36.182.423.434.795.755 1.116.323.321.697.574 1.12.759.426.181.882.272 1.368.272z" fill="beige"/></svg>