<svg width="20" height="28" fill="none" xmlns="http://www.w3.org/2000/svg"><path d="M20 28H0V0h20v28z" stroke="#4A0E1B"/><g clip-path="url(#a)"><path d="M19.688 13.5A9.686 9.686 0 0010 3.812 9.686 9.686 0 00.312 13.5c0 4.835 3.543 8.843 8.174 9.57V16.3h-2.46v-2.8h2.46v-2.134c0-2.428 1.446-3.77 3.66-3.77 1.06 0 2.168.19 2.168.19v2.383h-1.222c-1.203 0-1.578.747-1.578 1.513V13.5H14.2l-.43 2.8h-2.256v6.77c4.63-.727 8.174-4.735 8.174-9.57z" fill="beige"/></g><defs><clipPath id="a"><path d="M0 3.5h20v20H0v-20z" fill="#fff"/></clipPath></defs></svg>