<svg width="18" height="24" fill="none" xmlns="http://www.w3.org/2000/svg"><path d="M17.5 24H0V0h17.5v24z" stroke="#E5E7EB"/><g clip-path="url(#a)"><path d="M0 5.25C0 4.559.559 4 1.25 4h15c.691 0 1.25.559 1.25 1.25s-.559 1.25-1.25 1.25h-15C.559 6.5 0 5.941 0 5.25zm0 6.25c0-.691.559-1.25 1.25-1.25h15c.691 0 1.25.559 1.25 1.25s-.559 1.25-1.25 1.25h-15C.559 12.75 0 12.191 0 11.5zm17.5 6.25c0 .691-.559 1.25-1.25 1.25h-15C.559 19 0 18.441 0 17.75s.559-1.25 1.25-1.25h15c.691 0 1.25.559 1.25 1.25z" fill="beige"/></g><defs><clipPath id="a"><path d="M0 1.5h17.5v20H0v-20z" fill="#fff"/></clipPath></defs></svg>